<svg xmlns="http://www.w3.org/2000/svg" viewBox="0 0 28 28" fill="none">
<path d="M14 26C20.6274 26 26 20.6274 26 14C26 7.37258 20.6274 2 14 2C7.37258 2 2 7.37258 2 14C2 20.6274 7.37258 26 14 26Z" fill=""/>
<mask id="mask0_1499_6700" style="mask-type:luminance" maskUnits="userSpaceOnUse" x="0" y="0" width="28" height="28">
<path d="M28 0H0V28H28V0Z" fill="white"/>
</mask>
<g mask="url(#mask0_1499_6700)">
<path d="M15.7341 9.78596L11.8483 12.9449C11.5723 13.175 11.2242 13.3007 10.8649 13.3002C10.5453 13.2984 10.234 13.1983 9.97331 13.0135C9.71251 12.8287 9.51491 12.5682 9.40731 12.2672C9.29971 11.9663 9.28731 11.6396 9.37181 11.3314C9.45621 11.0231 9.63351 10.7484 9.87941 10.5443L13.7388 7.34766L15.7341 9.78596Z" fill="#FBBC04"/>
<path d="M16.3341 15.6016V19.4453C16.3349 19.6487 16.2957 19.8504 16.2186 20.0386C16.1415 20.2269 16.028 20.3982 15.8847 20.5426C15.7414 20.6871 15.571 20.8018 15.3833 20.8804C15.1956 20.959 14.9942 20.9998 14.7907 21.0005C13.9376 21.0005 13.168 20.3043 13.168 19.4452V15.6016H16.3341Z" fill="#34A853"/>
<path d="M16.3341 8.55762V17.9771L13.167 15.6014V8.55762H16.3341Z" fill="#4285F4"/>
<path d="M13.167 8.55728C13.1672 8.32628 13.2185 8.09808 13.3172 7.88918C13.4159 7.68028 13.5597 7.49588 13.7381 7.34908C14.0335 7.10638 14.4089 6.98258 14.7908 7.00198C15.1097 7.00488 15.42 7.10568 15.6799 7.29068C15.9397 7.47568 16.1364 7.73588 16.2436 8.03628C16.3507 8.33668 16.3631 8.66268 16.2789 8.97028C16.1948 9.27788 16.0183 9.55228 15.7732 9.75638L13.1681 11.8736V8.55728H13.167Z" fill="#EA4335"/>
<path d="M21.6754 21.985V23.0519H23.0975C24.3358 21.8074 25.3056 20.3221 25.9468 18.6878C26.5881 17.0535 26.8871 15.305 26.8255 13.5505C26.764 11.796 26.343 10.0728 25.5887 8.4875C24.8345 6.9022 23.7629 5.48856 22.4404 4.33398H21.0557V5.45973C22.2613 6.4532 23.2429 7.69071 23.9357 9.09091C24.6286 10.491 25.0171 12.0221 25.0757 13.5832C25.1342 15.1443 24.8615 16.7001 24.2755 18.1483C23.6894 19.5964 22.8032 20.904 21.6754 21.985Z" fill="#4285F4"/>
<path d="M2.76465 7.7966V8.8621H4.18493C4.94871 7.3999 6.0296 6.1268 7.3487 5.13597C8.6677 4.14516 10.1915 3.46169 11.8087 3.13552C13.4258 2.80935 15.0955 2.84873 16.6954 3.25079C18.2954 3.65284 19.7853 4.40741 21.0562 5.4593L22.4409 4.33356C20.9977 3.07342 19.2906 2.1524 17.4449 1.63807C15.5993 1.12375 13.6619 1.02917 11.7749 1.36127C9.888 1.69337 8.0993 2.44374 6.5401 3.5573C4.98099 4.67087 3.69095 6.1194 2.76465 7.7966Z" fill="#EA4335"/>
<path d="M21.6757 21.9846C20.439 23.1766 18.9419 24.0644 17.3028 24.5778C15.6636 25.0912 13.9275 25.216 12.2318 24.9423C10.5361 24.6687 8.9274 24.0041 7.533 23.0012C6.1385 21.9983 4.99667 20.6846 4.19776 19.1641H2.8125V20.2902C3.78482 22.0192 5.1447 23.4993 6.7854 24.6143C8.426 25.7293 10.3028 26.4488 12.2683 26.7164C14.2339 26.9839 16.2347 26.7922 18.1137 26.1563C19.9927 25.5204 21.6987 24.4577 23.0978 23.0514L21.6757 21.9846Z" fill="#34A853"/>
<path d="M2.91698 14.0006C2.91555 12.2103 3.35067 10.4466 4.18463 8.86238L2.76435 7.79688C1.70844 9.71127 1.15867 11.8636 1.16709 14.0499C1.17551 16.2363 1.74185 18.3843 2.81247 20.2905L4.19773 19.1644C3.3552 17.5737 2.91545 15.8007 2.91698 14.0006Z" fill="#FBBC04"/>
</g>
</svg>